# xmcd
#
# Track frame offsets:
#	150
#	13570
#	27517
#	41298
#	59124
#	83666
#	90309
#	97326
#	99571
#	110895
#	116584
#	124149
#	139070
#	149758
#	164291
#	167948
#	182332
#	197413
#	218976
#	225511
#	239302
#	244348
#	247962
#
# Disc length: 3462 seconds
#
# Revision: 1
# Processed by: cddbd v1.4PL0 Copyright (c) Steve Scherf et al.
# Submitted via: MusicWizard 6.0.2
#
DISCID=450d8417
DTITLE=Shel Silverstein - Shel Silverstein (1/2)
DYEAR=2002
DGENRE=Country
TTITLE0=Greasy Grit Gravy ( and Bobby Bare, Waylon and Willie)
TTITLE1=Truck Driver, Truck Driver (& Bobby Bare)
TTITLE2=Roland The Roadie And Gertrude The Groupie (& Dr. Hook)
TTITLE3=A Front Row Seat To Hear Ol' Johnny Sing ( and Johnny Cash)
TTITLE4=Killed By A Coconut (& Bob Gibson)
TTITLE5=Lookin' For Pussy (& Dr. Hook)
TTITLE6=Peace Proposal
TTITLE7=26 Seconds Song
TTITLE8=Alimoney
TTITLE9=Boa Constrictor
TTITLE10=Civil War Song
TTITLE11=Comin' After Jinny
TTITLE12=The Diet
TTITLE13=Don't Give A Dose To The One You Love The Most
TTITLE14=Eighteen Flavors
TTITLE15=Father Of A Boy Named Sue
TTITLE16=Freakin' At The Freaker's Ball
TTITLE17=Fuck 'em
TTITLE18=Goodnight Little House Plant
TTITLE19=Handy Man
TTITLE20=Hector The Collector
TTITLE21=Homework Machine
TTITLE22=Going Down To Texas
EXTD=ft
EXTT0=
EXTT1=
EXTT2=
EXTT3=
EXTT4=
EXTT5=
EXTT6=
EXTT7=
EXTT8=
EXTT9=
EXTT10=
EXTT11=
EXTT12=
EXTT13=
EXTT14=
EXTT15=
EXTT16=
EXTT17=
EXTT18=
EXTT19=
EXTT20=
EXTT21=
EXTT22=
PLAYORDER=
